<svg width="314.8" height="72.3" viewBox="0 0 314.8 72.3" xmlns="http://www.w3.org/2000/svg"><g id="svgGroup" stroke-linecap="round" fill-rule="evenodd" font-size="9pt" stroke="#000" stroke-width="0.25mm" fill="#000" style="stroke:#000;stroke-width:0.25mm;fill:#000"><path d="M 15.7 21.8 L 15.7 29.9 Q 15.7 36.5 15.5 42.6 Q 15.3 48.7 14.9 52.9 Q 14.824 53.812 14.402 55.445 A 45.494 45.494 0 0 1 14.1 56.55 Q 13.4 59 12.35 61.45 A 23.187 23.187 0 0 1 11.15 63.87 A 17.958 17.958 0 0 1 9.95 65.7 A 7.071 7.071 0 0 1 9.251 66.508 Q 8.258 67.481 7.24 67.5 A 2.176 2.176 0 0 1 7.2 67.5 A 2.333 2.333 0 0 1 6.559 67.404 Q 6.276 67.324 5.973 67.175 A 4.896 4.896 0 0 1 5.65 67 A 1.635 1.635 0 0 1 4.835 65.822 A 2.428 2.428 0 0 1 4.8 65.4 A 0.625 0.625 0 0 1 4.812 65.295 Q 4.862 65.025 5.109 64.273 A 35.898 35.898 0 0 1 5.15 64.15 A 20.409 20.409 0 0 1 5.296 63.727 Q 5.5 63.156 5.642 62.897 A 1.305 1.305 0 0 1 5.7 62.8 A 53.236 53.236 0 0 0 6.041 60.181 Q 6.356 57.24 6.526 53.27 A 172.373 172.373 0 0 0 6.55 52.7 Q 6.8 46.4 6.85 39.15 Q 6.9 31.9 6.85 24.35 Q 6.8 16.8 6.8 10.4 A 1.004 1.004 0 0 0 6.378 9.568 Q 6.219 9.446 6 9.35 A 12.423 12.423 0 0 0 5.152 9.018 Q 4.713 8.863 4.216 8.719 A 20.231 20.231 0 0 0 4.15 8.7 Q 3.1 8.4 1.95 8.1 Q 1.168 7.896 0.641 7.6 A 2.92 2.92 0 0 1 0.2 7.3 Q -0.1 5.9 0.05 4.7 A 2.485 2.485 0 0 1 0.268 3.928 A 1.98 1.98 0 0 1 1.2 3 Q 2.512 2.344 4.307 1.995 A 17.37 17.37 0 0 1 4.55 1.95 A 17.961 17.961 0 0 1 6.146 1.734 Q 7.181 1.643 8.1 1.7 Q 10 1.8 11.9 2.4 A 7.153 7.153 0 0 1 14.475 3.874 A 9.11 9.11 0 0 1 15.3 4.7 Q 15.832 5.384 16.681 6.731 A 73.281 73.281 0 0 1 17.25 7.65 A 244.674 244.674 0 0 1 18.401 9.559 Q 18.984 10.534 19.62 11.617 A 409.309 409.309 0 0 1 20.05 12.35 A 1931.102 1931.102 0 0 0 23.044 17.451 A 2095.17 2095.17 0 0 0 23.25 17.8 Q 24.9 20.6 26.4 22.9 A 68.057 68.057 0 0 0 27.483 24.513 Q 27.916 25.138 28.321 25.684 A 33.668 33.668 0 0 0 29.1 26.7 A 12.188 12.188 0 0 0 29.563 27.247 Q 30.243 28.002 30.684 28.159 A 0.646 0.646 0 0 0 30.9 28.2 A 1.073 1.073 0 0 0 31.351 28.079 Q 32.131 27.708 33.45 26.2 A 56.808 56.808 0 0 0 35.039 24.297 Q 35.832 23.305 36.679 22.172 A 99.33 99.33 0 0 0 37.25 21.4 Q 39.3 18.6 41.35 15.6 Q 43.35 12.673 44.732 10.697 A 293.45 293.45 0 0 1 44.8 10.6 Q 46 9.1 46.8 7.45 Q 47.6 5.8 48.45 4.35 A 9.081 9.081 0 0 1 49.469 2.929 A 7.348 7.348 0 0 1 50.45 2 A 4.024 4.024 0 0 1 51.932 1.285 Q 52.639 1.1 53.5 1.1 A 3.259 3.259 0 0 1 54.488 1.242 A 2.538 2.538 0 0 1 55.8 2.2 Q 56.6 3.3 56.9 4.6 Q 58 9.1 57.85 14.3 Q 57.7 19.5 57.7 25.5 Q 57.7 27.769 57.676 29.565 A 179.523 179.523 0 0 1 57.65 31.1 L 57.55 35.7 Q 57.5 38 57.4 40.85 Q 57.305 43.558 57.21 47.666 A 1071.309 1071.309 0 0 0 57.2 48.1 Q 57.114 49.905 57.028 52.152 A 627.399 627.399 0 0 0 57 52.9 Q 56.9 55.6 56.55 58.35 Q 56.2 61.1 55.45 63.6 A 14.299 14.299 0 0 1 54.401 66.191 A 11.683 11.683 0 0 1 53.3 67.9 Q 52.8 68.5 52.1 68.5 Q 51.063 68.5 50.382 66.9 A 6.794 6.794 0 0 1 50.3 66.7 A 17.05 17.05 0 0 1 49.639 64.582 A 22.586 22.586 0 0 1 49.25 62.6 A 58.05 58.05 0 0 1 48.85 59.397 A 49.945 49.945 0 0 1 48.75 58.2 Q 48.621 56.388 48.603 55.619 A 9.579 9.579 0 0 1 48.6 55.4 Q 48 46.3 48.4 37.1 Q 48.8 27.9 48.2 18.9 Q 46.603 21.894 44.209 25.337 A 78.614 78.614 0 0 1 44.2 25.35 A 94.872 94.872 0 0 1 40.079 30.852 A 85.013 85.013 0 0 1 39.3 31.8 A 44.162 44.162 0 0 1 37.132 34.224 Q 35.75 35.653 34.4 36.75 Q 32.48 38.31 31.072 38.622 A 3.107 3.107 0 0 1 30.4 38.7 A 5.62 5.62 0 0 1 27.864 38.08 A 7.42 7.42 0 0 1 26.9 37.5 A 16.888 16.888 0 0 1 24.116 35.017 A 19.055 19.055 0 0 1 23.75 34.6 Q 22.3 32.9 21.2 31.05 A 122.969 122.969 0 0 1 20.431 29.74 Q 20.134 29.226 19.877 28.766 A 58.575 58.575 0 0 1 19.4 27.9 A 32.268 32.268 0 0 0 18.405 26.278 A 41.267 41.267 0 0 0 17.5 24.95 Q 16.4 23.4 15.7 21.8 Z M 143 27.6 L 143 9 Q 143 8.3 142.85 8.15 A 0.48 0.48 0 0 0 142.746 8.074 Q 142.567 7.973 142.2 7.9 Q 140.2 7.6 138.3 6.7 Q 137.2 6.2 136.4 5.25 A 7.564 7.564 0 0 1 136.088 4.856 Q 135.6 4.191 135.6 3.8 Q 135.6 3.173 136.482 2.586 A 4.833 4.833 0 0 1 136.7 2.45 Q 137.8 1.8 138.5 1.6 A 12.526 12.526 0 0 1 139.514 1.247 Q 140.133 1.059 140.85 0.9 Q 142.2 0.6 143.6 0.4 A 43.055 43.055 0 0 1 145.644 0.156 A 38.099 38.099 0 0 1 146.3 0.1 A 41.083 41.083 0 0 1 147.219 0.039 Q 147.938 0 148.5 0 A 1.577 1.577 0 0 1 149.17 0.156 Q 149.435 0.279 149.7 0.5 Q 150.3 1 150.8 1.65 A 6.385 6.385 0 0 1 151.48 2.739 A 5.775 5.775 0 0 1 151.6 3 Q 151.847 3.577 151.891 3.95 A 1.299 1.299 0 0 1 151.9 4.1 L 151.9 60 Q 151.9 61.148 151.988 62.619 A 70.024 70.024 0 0 0 152.05 63.55 A 16.344 16.344 0 0 0 152.174 64.711 Q 152.334 65.806 152.629 66.534 A 4.38 4.38 0 0 0 152.7 66.7 A 8.774 8.774 0 0 0 153.305 67.587 A 6.482 6.482 0 0 0 154 68.35 A 20.059 20.059 0 0 0 154.593 68.88 Q 154.893 69.138 155.172 69.353 A 11.735 11.735 0 0 0 155.3 69.45 Q 155.759 69.795 156.131 70.051 A 16.044 16.044 0 0 0 156.35 70.2 A 1.826 1.826 0 0 1 156.536 70.341 Q 156.733 70.512 156.783 70.683 A 0.415 0.415 0 0 1 156.8 70.8 A 1.394 1.394 0 0 1 156.809 70.933 Q 156.819 71.657 156.004 71.95 A 2.419 2.419 0 0 1 155.85 72 Q 154.8 72.3 153.45 72.3 Q 152.1 72.3 150.75 72.1 Q 149.563 71.924 149.11 71.748 A 1.306 1.306 0 0 1 149 71.7 A 9.496 9.496 0 0 1 147.511 70.847 A 11.31 11.31 0 0 1 146.85 70.35 A 5.879 5.879 0 0 1 145.97 69.453 Q 145.597 68.989 145.255 68.405 A 11.591 11.591 0 0 1 144.95 67.85 A 11.703 11.703 0 0 1 144.355 66.465 Q 143.894 65.188 143.55 63.5 Q 143.176 61.665 143.056 59.137 A 53.755 53.755 0 0 1 143 56.6 L 143 35.3 Q 141.881 34.479 140.233 33.659 A 32.706 32.706 0 0 0 139.05 33.1 A 10.612 10.612 0 0 0 134.653 32.169 A 11.973 11.973 0 0 0 133.8 32.2 A 18.778 18.778 0 0 0 131.27 32.508 A 23.611 23.611 0 0 0 129.55 32.9 A 10.09 10.09 0 0 0 126.217 34.509 A 12.279 12.279 0 0 0 125.35 35.2 A 10.414 10.414 0 0 0 123.525 37.312 Q 122.755 38.473 122.15 39.95 A 13.64 13.64 0 0 0 121.422 42.411 Q 120.993 44.53 120.993 47.27 A 36.514 36.514 0 0 0 121 48 Q 121 51.5 121.5 54.95 A 18.998 18.998 0 0 0 122.17 57.941 A 13.895 13.895 0 0 0 123.45 60.85 Q 124.9 63.3 127.4 64.4 Q 129.9 65.5 134 64.3 A 16.026 16.026 0 0 0 134.646 64.123 Q 134.937 64.037 135.263 63.931 A 34.263 34.263 0 0 0 135.95 63.7 Q 137.1 63.3 138.2 62.9 Q 139.3 62.5 140.25 62.25 Q 141.129 62.019 141.537 62.172 A 0.666 0.666 0 0 1 141.6 62.2 A 0.546 0.546 0 0 1 141.937 62.636 Q 142.018 63.104 141.6 64 A 8.613 8.613 0 0 1 140.82 65.326 Q 140.396 65.925 139.836 66.539 A 16.658 16.658 0 0 1 139.3 67.1 A 17.959 17.959 0 0 1 136.817 69.158 A 21.707 21.707 0 0 1 135.5 70 A 9.201 9.201 0 0 1 132.38 71.173 A 8.63 8.63 0 0 1 130.9 71.3 Q 127 71.3 123.45 69.95 Q 119.9 68.6 117.2 65.8 A 18.669 18.669 0 0 1 114.192 61.617 A 23.974 23.974 0 0 1 112.9 58.75 Q 111.463 54.932 111.317 49.783 A 41.695 41.695 0 0 1 111.3 48.6 Q 111.3 43.6 112.8 39 A 26.212 26.212 0 0 1 115.781 32.719 A 23.789 23.789 0 0 1 117.1 30.9 Q 119.9 27.4 123.95 25.3 Q 128 23.2 133.2 23.2 A 12.328 12.328 0 0 1 136.107 23.564 A 16.6 16.6 0 0 1 138.5 24.35 A 12.083 12.083 0 0 1 141.234 25.892 A 10.194 10.194 0 0 1 143 27.6 Z M 187.8 44.6 L 187.8 11.1 Q 186.828 11.012 185.699 10.494 A 9.976 9.976 0 0 1 185.4 10.35 Q 184.1 9.7 183.05 8.8 A 8.177 8.177 0 0 1 182.011 7.74 A 6.689 6.689 0 0 1 181.4 6.85 A 2.798 2.798 0 0 1 181.119 6.176 Q 180.928 5.449 181.2 4.7 Q 181.5 3.9 183.35 4.15 A 34.525 34.525 0 0 0 184.843 4.316 Q 185.675 4.392 186.622 4.445 A 68.389 68.389 0 0 0 187.8 4.5 Q 190.8 4.6 194.6 4.4 A 364.156 364.156 0 0 0 201.441 3.973 A 401.158 401.158 0 0 0 202.45 3.9 Q 206.5 3.6 210.55 3.15 Q 214.6 2.7 218 2.2 A 3.306 3.306 0 0 1 218.309 2.171 Q 218.832 2.146 219.534 2.255 A 10.372 10.372 0 0 1 219.8 2.3 A 13.852 13.852 0 0 1 221.884 2.845 A 13.325 13.325 0 0 1 221.9 2.85 A 8.69 8.69 0 0 1 222.919 3.278 A 6.813 6.813 0 0 1 223.65 3.7 Q 224.4 4.2 224.4 4.8 Q 224.4 5.367 223.953 6.203 A 6.989 6.989 0 0 1 223.9 6.3 A 7.735 7.735 0 0 1 223.322 7.184 Q 222.964 7.66 222.5 8.15 A 9.88 9.88 0 0 1 221.255 9.252 A 12.509 12.509 0 0 1 220.3 9.9 Q 219 10.7 217.5 10.9 A 112.73 112.73 0 0 1 214.043 11.379 A 95.889 95.889 0 0 1 212.55 11.55 Q 210.2 11.8 207.8 11.9 Q 205.4 12 202.8 12.05 Q 200.2 12.1 197.1 12.1 Q 197.2 16.7 197.3 21.1 Q 197.4 25.5 197.2 29 Q 200.2 28.9 202.65 28.75 Q 205.1 28.6 207.4 28.45 Q 209.7 28.3 212.05 28.1 Q 214.4 27.9 217.1 27.6 Q 217.559 27.523 218.253 27.418 A 178.994 178.994 0 0 1 218.7 27.35 Q 219.7 27.2 220.75 27.15 Q 221.8 27.1 222.7 27.3 A 2.055 2.055 0 0 1 223.151 27.452 Q 223.435 27.59 223.605 27.809 A 1.146 1.146 0 0 1 223.8 28.2 A 2.899 2.899 0 0 1 223.945 29.095 Q 223.952 29.85 223.61 30.732 A 6.789 6.789 0 0 1 223.5 31 A 11.732 11.732 0 0 1 222.071 33.408 A 13.676 13.676 0 0 1 221.55 34.05 A 13.671 13.671 0 0 1 219.079 36.309 A 12.713 12.713 0 0 1 218.8 36.5 A 9.305 9.305 0 0 1 218.006 36.978 Q 217.189 37.412 216.552 37.485 A 2.202 2.202 0 0 1 216.3 37.5 L 197.2 37.5 Q 197.2 40.8 197.05 44.8 Q 196.902 48.737 196.513 51.898 A 60.052 60.052 0 0 1 196.5 52 A 37.263 37.263 0 0 1 195.69 56.6 A 32.255 32.255 0 0 1 195.15 58.55 Q 194.263 61.397 193.245 63.591 A 29.011 29.011 0 0 1 193.1 63.9 A 26.218 26.218 0 0 1 192.292 65.461 Q 191.596 66.696 190.9 67.55 Q 190.117 68.51 189.487 68.788 A 1.211 1.211 0 0 1 189 68.9 A 1.097 1.097 0 0 1 188.552 68.791 Q 187.976 68.531 187.2 67.65 A 4.903 4.903 0 0 1 186.508 66.651 A 3.577 3.577 0 0 1 186.1 65 A 0.313 0.313 0 0 1 186.105 64.958 Q 186.138 64.75 186.4 63.7 A 35.587 35.587 0 0 0 186.538 63.131 Q 186.725 62.325 186.8 61.8 A 270.03 270.03 0 0 0 187.059 59.66 Q 187.194 58.509 187.3 57.5 Q 187.5 55.6 187.6 53.7 Q 187.7 51.8 187.75 49.65 A 165.701 165.701 0 0 0 187.78 47.932 Q 187.79 47.172 187.795 46.339 A 297.117 297.117 0 0 0 187.8 44.6 Z M 278.1 61.7 L 279.1 61.7 A 3258.152 3258.152 0 0 0 284.294 53.98 A 3562.923 3562.923 0 0 0 284.65 53.45 Q 287.5 49.2 290.15 45.1 A 8553.633 8553.633 0 0 0 294.013 39.119 A 7614.915 7614.915 0 0 0 295.25 37.2 Q 297.7 33.4 299.7 30.2 Q 298.6 30.3 296.6 30.55 Q 294.6 30.8 292.35 31.1 Q 290.1 31.4 287.95 31.6 A 63.733 63.733 0 0 1 286.689 31.705 Q 285.48 31.794 284.62 31.8 A 17.67 17.67 0 0 1 284.5 31.8 A 4.345 4.345 0 0 1 283.425 31.657 Q 282.791 31.495 282.1 31.15 Q 280.8 30.5 279.75 29.5 A 9.679 9.679 0 0 1 278.471 28.02 A 8.488 8.488 0 0 1 278.05 27.35 A 5.87 5.87 0 0 1 277.654 26.509 Q 277.472 26.018 277.42 25.557 A 3.218 3.218 0 0 1 277.4 25.2 Q 277.4 24.812 278.013 24.659 A 2.198 2.198 0 0 1 278.05 24.65 A 7.901 7.901 0 0 1 278.806 24.516 A 10.411 10.411 0 0 1 279.5 24.45 Q 280.3 24.4 281.15 24.45 Q 282 24.5 282.5 24.5 Q 285.4 24.5 288.85 24.4 Q 292.3 24.3 295.65 24.1 Q 299 23.9 302 23.65 A 122.465 122.465 0 0 0 304.123 23.455 Q 305.788 23.288 307.1 23.1 A 16.207 16.207 0 0 1 307.954 22.98 A 14.012 14.012 0 0 1 308.25 22.95 A 4.056 4.056 0 0 1 308.494 22.935 Q 308.892 22.923 309.2 23 A 4.401 4.401 0 0 1 309.794 23.22 Q 310.245 23.423 310.75 23.75 Q 311.6 24.3 312.35 25 A 7.583 7.583 0 0 1 313.062 25.758 A 5.96 5.96 0 0 1 313.55 26.45 A 4.021 4.021 0 0 1 313.802 26.937 Q 314 27.402 314 27.8 A 1.155 1.155 0 0 1 313.519 28.599 Q 313.331 28.741 313.071 28.851 A 3.166 3.166 0 0 1 312.8 28.95 Q 311.7 29.3 311 29.5 A 85.78 85.78 0 0 1 310.002 31.12 Q 309.545 31.844 309.019 32.652 A 181.237 181.237 0 0 1 307.9 34.35 Q 306 37.2 303.75 40.35 Q 301.5 43.5 299.15 46.85 Q 296.8 50.2 294.65 53.15 Q 292.5 56.1 290.7 58.5 Q 288.9 60.9 287.9 62.2 Q 291.3 62.1 294.1 61.95 Q 296.9 61.8 299.4 61.65 Q 301.9 61.5 304.2 61.35 Q 306.5 61.2 308.8 61 Q 309.8 60.9 310.85 60.85 A 21.917 21.917 0 0 1 311.616 60.827 Q 312.113 60.82 312.573 60.839 A 15.48 15.48 0 0 1 312.8 60.85 A 8.006 8.006 0 0 1 313.328 60.896 Q 313.6 60.929 313.831 60.98 A 3.349 3.349 0 0 1 314.25 61.1 A 1.388 1.388 0 0 1 314.478 61.205 Q 314.8 61.394 314.8 61.7 A 2.247 2.247 0 0 1 314.715 62.283 Q 314.548 62.903 314.05 63.7 A 13.857 13.857 0 0 1 312.853 65.326 A 16.594 16.594 0 0 1 312.2 66.05 Q 311.1 67.2 309.65 68 Q 308.335 68.726 307.143 68.793 A 4.299 4.299 0 0 1 306.9 68.8 L 282.6 68.8 A 9.882 9.882 0 0 1 281.479 68.739 A 7.3 7.3 0 0 1 280.45 68.55 A 3.614 3.614 0 0 1 279.188 67.927 A 4.653 4.653 0 0 1 278.7 67.5 Q 278.1 66.9 277.35 65.55 A 14.784 14.784 0 0 1 276.935 64.75 Q 276.538 63.919 276.4 63.3 Q 276.283 62.833 276.405 62.502 A 0.914 0.914 0 0 1 276.7 62.1 Q 277.11 61.772 277.789 61.713 A 3.593 3.593 0 0 1 278.1 61.7 Z M 82.179 67.499 A 21.007 21.007 0 0 0 86.9 68.1 A 22.206 22.206 0 0 0 87.697 68.085 Q 90.106 67.999 93.1 67.4 A 15.125 15.125 0 0 0 94.395 67.081 A 15.856 15.856 0 0 0 99.6 64.4 Q 102.6 62 103.35 59.9 A 11.388 11.388 0 0 0 103.488 59.49 Q 103.899 58.186 103.704 57.554 A 0.839 0.839 0 0 0 103.5 57.2 A 1.119 1.119 0 0 0 103.019 56.874 Q 102.315 56.628 101.1 57.2 A 17.009 17.009 0 0 1 100.97 57.26 Q 99.703 57.844 97.369 58.681 A 126.679 126.679 0 0 1 95.6 59.3 A 4.971 4.971 0 0 1 95.566 59.313 Q 94.814 59.608 93.228 59.956 A 53.496 53.496 0 0 1 92.05 60.2 A 20.383 20.383 0 0 1 90.819 60.403 Q 89.664 60.557 88.586 60.557 A 14.198 14.198 0 0 1 87.3 60.5 A 14.591 14.591 0 0 1 86.241 60.431 Q 83.578 60.158 81.9 58.9 A 11.108 11.108 0 0 1 81.838 58.853 A 9.546 9.546 0 0 1 78.9 55.25 Q 77.9 53.1 77.7 50.7 A 30.517 30.517 0 0 1 77.639 49.818 Q 77.538 47.944 77.7 46.4 Q 79.8 46.5 83.65 46.3 Q 87.5 46.1 91.55 45.7 Q 95.6 45.3 99.1 44.9 A 181.46 181.46 0 0 0 99.641 44.837 Q 102.719 44.476 104.1 44.2 A 19.753 19.753 0 0 0 104.574 44.094 Q 107.919 43.304 108.2 41.9 A 0.903 0.903 0 0 0 108.193 41.793 Q 108.146 41.398 107.773 40.63 A 14.459 14.459 0 0 0 107.5 40.1 A 7.874 7.874 0 0 0 106.983 39.265 A 6.243 6.243 0 0 0 105.8 38 A 9.392 9.392 0 0 0 105.702 37.503 Q 105.448 36.362 104.8 34.5 A 15.34 15.34 0 0 0 103.852 32.344 A 19.561 19.561 0 0 0 102.3 29.9 A 15.64 15.64 0 0 0 100.737 28.097 A 18.853 18.853 0 0 0 97.9 25.8 A 10.709 10.709 0 0 0 97.851 25.768 Q 95.164 23.997 91.2 23.7 A 26.465 26.465 0 0 0 89.514 23.645 Q 85.773 23.645 82.5 24.75 A 23.416 23.416 0 0 0 82.004 24.924 A 20.495 20.495 0 0 0 75.5 28.7 Q 72.5 31.3 70.55 35.1 A 23.622 23.622 0 0 0 69.56 37.301 A 26.378 26.378 0 0 0 68 43.5 Q 67.4 47.7 68.3 52.05 Q 69.2 56.4 71.6 59.95 Q 74 63.5 77.85 65.75 A 16.485 16.485 0 0 0 82.179 67.499 Z M 228.9 46.4 Q 228.9 41.7 230.65 37.4 Q 232.4 33.1 235.6 29.8 Q 238.8 26.5 243.2 24.55 A 22.943 22.943 0 0 1 250.784 22.68 A 27.413 27.413 0 0 1 252.9 22.6 Q 257.3 22.6 260.95 24.5 Q 264.6 26.4 267.2 29.6 Q 269.8 32.8 271.25 36.9 Q 272.7 41 272.7 45.4 A 25.56 25.56 0 0 1 271.076 54.28 A 28.717 28.717 0 0 1 271.05 54.35 Q 269.4 58.8 266.4 62.25 Q 263.4 65.7 259.2 67.85 Q 255 70 249.9 70 A 22.76 22.76 0 0 1 244.651 69.415 A 19.193 19.193 0 0 1 241.2 68.25 Q 237.3 66.5 234.55 63.35 A 21.081 21.081 0 0 1 230.939 57.439 A 24.975 24.975 0 0 1 230.35 55.85 A 28.515 28.515 0 0 1 228.992 48.922 A 33.995 33.995 0 0 1 228.9 46.4 Z M 167.4 54.8 L 167.4 29.2 A 3.73 3.73 0 0 0 167.393 28.963 Q 167.371 28.616 167.277 28.483 A 0.247 0.247 0 0 0 167.25 28.45 A 1.334 1.334 0 0 0 166.902 28.201 A 1.421 1.421 0 0 0 166.9 28.2 A 39.95 39.95 0 0 0 166.094 27.968 Q 165.734 27.868 165.336 27.764 A 75.145 75.145 0 0 0 164.5 27.55 Q 163.346 27.262 162.668 27.007 A 6.296 6.296 0 0 1 162.4 26.9 A 4.706 4.706 0 0 1 160.722 25.48 A 5.466 5.466 0 0 1 160.7 25.45 A 3.885 3.885 0 0 1 160.228 24.624 A 2.935 2.935 0 0 1 160 23.5 A 0.955 0.955 0 0 1 160.216 22.909 Q 160.456 22.597 160.962 22.322 A 4.492 4.492 0 0 1 161.1 22.25 A 18.398 18.398 0 0 1 161.748 21.94 Q 162.348 21.669 162.796 21.531 A 5.022 5.022 0 0 1 162.9 21.5 Q 165.4 20.7 167.5 20.3 A 18.403 18.403 0 0 1 170.242 19.995 Q 171.1 19.963 172 20 Q 172.957 20 173.627 20.318 A 2.546 2.546 0 0 1 173.95 20.5 A 3.939 3.939 0 0 1 174.53 20.966 A 2.866 2.866 0 0 1 175.05 21.65 A 5.478 5.478 0 0 1 175.435 22.539 A 4.732 4.732 0 0 1 175.55 22.95 A 8.087 8.087 0 0 1 175.629 23.332 Q 175.695 23.699 175.7 23.963 A 2.228 2.228 0 0 1 175.7 24 L 175.7 54.7 A 26.768 26.768 0 0 1 175.559 57.377 A 35.461 35.461 0 0 1 175.2 59.95 A 47.377 47.377 0 0 1 174.477 63.356 A 39.468 39.468 0 0 1 173.95 65.25 Q 173.325 67.291 172.492 68.742 A 10.977 10.977 0 0 1 172.15 69.3 A 6.771 6.771 0 0 1 171.662 69.961 Q 171.102 70.622 170.556 70.818 A 1.344 1.344 0 0 1 170.1 70.9 Q 169.2 70.9 168.7 69.05 Q 168.293 67.543 168.018 65.539 A 44.528 44.528 0 0 1 167.9 64.6 Q 167.6 62 167.5 59.3 Q 167.402 56.665 167.4 54.888 A 66.002 66.002 0 0 1 167.4 54.8 Z M 252.7 31.2 A 15.27 15.27 0 0 0 248.215 31.846 A 13.97 13.97 0 0 0 246.6 32.45 Q 243.8 33.7 241.7 35.85 Q 239.6 38 238.45 40.85 Q 237.3 43.7 237.3 46.8 Q 237.3 49.4 238.25 51.95 Q 239.2 54.5 240.9 56.6 Q 242.6 58.7 245.05 60 Q 247.5 61.3 250.4 61.3 Q 253.3 61.3 255.95 59.85 Q 258.6 58.4 260.55 56.1 Q 262.5 53.8 263.65 50.85 A 16.337 16.337 0 0 0 264.796 45.275 A 15.631 15.631 0 0 0 264.8 44.9 Q 264.8 42.5 263.95 40.1 Q 263.1 37.7 261.55 35.7 Q 260 33.7 257.75 32.45 Q 255.5 31.2 252.7 31.2 Z M 97.1 37.8 Q 96.8 36.3 95.95 34.75 Q 95.1 33.2 93.75 32.05 Q 92.4 30.9 90.65 30.3 Q 88.998 29.734 87.124 30.058 A 8.772 8.772 0 0 0 86.9 30.1 A 7.453 7.453 0 0 0 84.134 31.101 A 7.17 7.17 0 0 0 83.55 31.5 Q 82.1 32.6 81 34.1 Q 79.9 35.6 79.2 37.3 A 18.038 18.038 0 0 0 78.481 39.386 A 15.046 15.046 0 0 0 78.2 40.6 Q 83.6 39.8 88.1 39.1 Q 92.6 38.4 97.1 37.8 Z M 170.268 14.736 A 2.403 2.403 0 0 0 170.6 14.7 A 3.634 3.634 0 0 0 171.266 14.563 Q 172.094 14.308 172.804 13.653 A 6.146 6.146 0 0 0 173.7 12.6 A 10.145 10.145 0 0 0 174.05 12.053 Q 174.462 11.36 174.695 10.694 A 5.107 5.107 0 0 0 175 9 A 2.308 2.308 0 0 0 174.747 7.953 A 3.12 3.12 0 0 0 174.3 7.3 Q 173.6 6.5 172.55 5.85 Q 171.5 5.2 170.25 4.85 A 10.157 10.157 0 0 0 169.861 4.749 A 8.889 8.889 0 0 0 167.8 4.5 Q 166.7 4.5 165.75 5.3 Q 164.8 6.1 164.25 7.25 Q 163.7 8.4 163.65 9.65 A 3.649 3.649 0 0 0 163.647 9.796 A 2.918 2.918 0 0 0 164.4 11.8 A 7.729 7.729 0 0 0 165.738 13.027 A 9.624 9.624 0 0 0 167.55 14.05 A 13.612 13.612 0 0 0 167.843 14.174 Q 169.315 14.775 170.268 14.736 Z" vector-effect="non-scaling-stroke"/></g></svg>