<svg xmlns="http://www.w3.org/2000/svg" xmlns:xlink="http://www.w3.org/1999/xlink" width="500" zoomAndPan="magnify" viewBox="0 0 375 374.999991" height="500" preserveAspectRatio="xMidYMid meet" version="1.0"><defs><g/><clipPath id="id1"><path d="M 132.207031 86.945312 L 242.457031 86.945312 L 242.457031 197.195312 L 132.207031 197.195312 Z M 132.207031 86.945312 " clip-rule="nonzero"/></clipPath><clipPath id="id2"><path d="M 162.347656 149.976562 L 323.597656 149.976562 L 323.597656 311.226562 L 162.347656 311.226562 Z M 162.347656 149.976562 " clip-rule="nonzero"/></clipPath></defs><g clip-path="url(#id1)"><path fill="#000000" d="M 187.429688 101.699219 L 206.226562 134.585938 L 187.429688 145.09375 L 168.433594 134.484375 L 187.308594 101.480469 L 187.449219 101.71875 Z M 187.289062 156.742188 L 187.429688 156.964844 L 208.648438 193.914062 L 210.527344 197.175781 L 213.730469 195.175781 L 236.929688 180.625 L 239.871094 178.761719 L 238.152344 175.738281 L 227.5625 157.222656 L 239.113281 123.4375 L 242.175781 114.488281 L 233.90625 119.113281 L 212.570312 131.023438 L 191.472656 94.132812 L 187.210938 86.925781 L 187.011719 87.265625 L 183.085938 94.132812 L 162.050781 130.902344 L 140.710938 118.992188 L 132.445312 114.371094 L 135.507812 123.316406 L 147.058594 157.105469 L 136.46875 175.621094 L 134.746094 178.640625 L 137.691406 180.484375 L 160.886719 195.035156 L 164.089844 197.035156 L 165.972656 193.773438 L 187.269531 156.722656 Z M 155.023438 157.886719 L 163.691406 183.246094 L 182.445312 150.617188 L 164.8125 140.769531 L 158.464844 137.226562 L 145.476562 129.960938 Z M 150.21875 166.292969 L 144.535156 176.21875 L 156.105469 183.464844 L 150.21875 166.273438 Z M 217.335938 164.652344 L 210.929688 183.367188 L 192.175781 150.738281 L 209.808594 140.890625 L 216.152344 137.347656 L 229.144531 130.082031 L 217.316406 164.652344 Z M 224.421875 166.390625 L 230.105469 176.320312 L 218.535156 183.566406 L 224.421875 166.371094 Z M 224.421875 166.390625 " fill-opacity="1" fill-rule="evenodd"/></g><path fill="#5fc7ea" d="M 192.195312 150.738281 L 210.949219 183.367188 L 217.355469 164.671875 L 229.183594 130.082031 L 216.171875 137.347656 L 209.828125 140.890625 Z M 192.195312 150.738281 " fill-opacity="1" fill-rule="evenodd"/><path fill="#71ae60" d="M 163.710938 183.265625 L 182.464844 150.617188 L 164.832031 140.769531 L 158.488281 137.226562 L 145.496094 129.960938 L 155.042969 157.90625 Z M 163.710938 183.265625 " fill-opacity="1" fill-rule="evenodd"/><path fill="#5fc7ea" d="M 242.972656 152.664062 L 242.972656 163.414062 C 280.023438 163.414062 310.160156 193.554688 310.160156 230.601562 C 310.160156 267.648438 280.023438 297.789062 242.972656 297.789062 C 205.925781 297.789062 175.785156 267.648438 175.785156 230.601562 L 165.035156 230.601562 C 165.035156 273.644531 199.929688 308.539062 242.972656 308.539062 C 286.015625 308.539062 320.910156 273.644531 320.910156 230.601562 C 320.910156 187.558594 286.015625 152.664062 242.972656 152.664062 " fill-opacity="1" fill-rule="nonzero"/><path fill="#71ae60" d="M 276.523438 172.40625 L 271.1875 181.734375 C 288.046875 191.507812 299.410156 209.753906 299.410156 230.601562 C 299.410156 261.722656 274.09375 287.039062 242.972656 287.039062 C 211.855469 287.039062 186.535156 261.722656 186.535156 230.601562 L 175.785156 230.601562 C 175.785156 267.648438 205.925781 297.789062 242.972656 297.789062 C 280.023438 297.789062 310.160156 267.648438 310.160156 230.601562 C 310.160156 205.765625 296.613281 184.03125 276.523438 172.40625 " fill-opacity="1" fill-rule="nonzero"/><path fill="#ff1616" d="M 291.839844 202.390625 L 282.535156 207.761719 C 286.429688 214.488281 288.660156 222.289062 288.660156 230.601562 C 288.660156 255.796875 268.167969 276.289062 242.972656 276.289062 C 217.78125 276.289062 197.285156 255.796875 197.285156 230.601562 L 186.535156 230.601562 C 186.535156 261.722656 211.855469 287.039062 242.972656 287.039062 C 274.09375 287.039062 299.410156 261.722656 299.410156 230.601562 C 299.410156 220.332031 296.65625 210.695312 291.839844 202.390625 " fill-opacity="1" fill-rule="nonzero"/><path fill="#ffffff" d="M 277.910156 230.601562 C 277.910156 249.867188 262.238281 265.539062 242.972656 265.539062 C 223.707031 265.539062 208.035156 249.867188 208.035156 230.601562 L 197.285156 230.601562 C 197.285156 255.796875 217.78125 276.289062 242.972656 276.289062 C 268.167969 276.289062 288.660156 255.796875 288.660156 230.601562 L 277.910156 230.601562 " fill-opacity="1" fill-rule="nonzero"/><g clip-path="url(#id2)"><path fill="#000000" d="M 296.183594 283.8125 C 281.972656 298.023438 263.074219 305.851562 242.972656 305.851562 C 222.875 305.851562 203.976562 298.023438 189.765625 283.8125 C 176.1875 270.234375 168.4375 252.382812 167.769531 233.289062 L 173.148438 233.289062 C 174.570312 270.578125 205.34375 300.476562 242.972656 300.476562 C 281.503906 300.476562 312.847656 269.132812 312.847656 230.601562 C 312.847656 192.972656 282.949219 162.195312 245.660156 160.777344 L 245.660156 155.398438 C 264.753906 156.066406 282.605469 163.816406 296.183594 177.394531 C 310.394531 191.605469 318.222656 210.503906 318.222656 230.601562 C 318.222656 250.703125 310.394531 269.601562 296.183594 283.8125 Z M 183.914062 233.289062 C 185.324219 264.648438 211.273438 289.726562 242.972656 289.726562 C 275.574219 289.726562 302.097656 263.203125 302.097656 230.601562 C 302.097656 220.058594 299.277344 209.703125 293.9375 200.648438 C 289.210938 192.640625 282.636719 185.824219 274.824219 180.808594 L 277.515625 176.152344 C 295.511719 187.609375 307.472656 207.734375 307.472656 230.601562 C 307.472656 266.167969 278.539062 295.101562 242.972656 295.101562 C 208.308594 295.101562 179.945312 267.613281 178.527344 233.289062 Z M 242.972656 268.226562 C 262.816406 268.226562 279.121094 252.785156 280.503906 233.289062 L 285.886719 233.289062 C 284.496094 255.753906 265.78125 273.601562 242.972656 273.601562 C 220.167969 273.601562 201.453125 255.753906 200.0625 233.289062 L 205.445312 233.289062 C 206.828125 252.785156 223.132812 268.226562 242.972656 268.226562 Z M 290.769531 206.113281 C 294.609375 213.589844 296.722656 221.964844 296.722656 230.601562 C 296.722656 260.238281 272.613281 284.351562 242.972656 284.351562 C 214.238281 284.351562 190.695312 261.683594 189.292969 233.289062 L 194.675781 233.289062 C 196.074219 258.71875 217.203125 278.976562 242.972656 278.976562 C 269.648438 278.976562 291.347656 257.277344 291.347656 230.601562 C 291.347656 223.007812 289.554688 215.519531 286.140625 208.78125 Z M 299.984375 173.59375 C 284.757812 158.363281 264.507812 149.976562 242.972656 149.976562 C 241.488281 149.976562 240.285156 151.179688 240.285156 152.664062 L 240.285156 163.414062 C 240.285156 164.898438 241.488281 166.101562 242.972656 166.101562 C 253.753906 166.101562 263.921875 168.765625 272.863281 173.457031 L 268.859375 180.390625 C 268.117188 181.675781 268.554688 183.316406 269.839844 184.0625 C 277.324219 188.398438 283.519531 194.414062 288.078125 201.460938 L 281.191406 205.4375 C 280.570312 205.792969 280.121094 206.378906 279.9375 207.070312 C 279.753906 207.757812 279.851562 208.492188 280.207031 209.109375 C 283.53125 214.847656 285.472656 221.296875 285.886719 227.914062 L 277.910156 227.914062 C 276.425781 227.914062 275.222656 229.117188 275.222656 230.601562 C 275.222656 248.382812 260.757812 262.851562 242.972656 262.851562 C 225.191406 262.851562 210.722656 248.382812 210.722656 230.601562 C 210.722656 229.117188 209.519531 227.914062 208.035156 227.914062 L 165.035156 227.914062 C 163.550781 227.914062 162.347656 229.117188 162.347656 230.601562 C 162.347656 252.136719 170.734375 272.382812 185.964844 287.613281 C 201.191406 302.839844 221.4375 311.226562 242.972656 311.226562 C 264.507812 311.226562 284.757812 302.839844 299.984375 287.613281 C 315.210938 272.382812 323.597656 252.136719 323.597656 230.601562 C 323.597656 209.066406 315.210938 188.820312 299.984375 173.59375 " fill-opacity="1" fill-rule="nonzero"/></g><g fill="#000000" fill-opacity="1"><g transform="translate(49.82454, 219.617807)"><g><path d="M 12.140625 -15.953125 L 10.4375 0 L 3.984375 0 L 0.640625 -29.9375 L 5.21875 -29.9375 L 7.734375 -6.328125 L 10 -29.9375 L 14.546875 -29.9375 L 16.890625 -6.15625 L 19.328125 -29.9375 L 23.4375 -29.9375 L 20.09375 0 L 13.859375 0 Z M 12.140625 -15.953125 "/></g></g></g><g fill="#000000" fill-opacity="1"><g transform="translate(79.884192, 219.617807)"><g><path d="M 6.421875 -17.3125 L 12.875 -17.3125 L 12.875 -13.046875 L 6.421875 -13.046875 L 6.421875 -4.28125 L 14.546875 -4.28125 L 14.546875 0 L 1.703125 0 L 1.703125 -29.9375 L 14.546875 -29.9375 L 14.546875 -25.65625 L 6.421875 -25.65625 Z M 6.421875 -17.3125 "/></g></g></g><g fill="#000000" fill-opacity="1"><g transform="translate(101.605931, 219.617807)"><g><path d="M 6.421875 -17.3125 L 12.875 -17.3125 L 12.875 -13.046875 L 6.421875 -13.046875 L 6.421875 -4.28125 L 14.546875 -4.28125 L 14.546875 0 L 1.703125 0 L 1.703125 -29.9375 L 14.546875 -29.9375 L 14.546875 -25.65625 L 6.421875 -25.65625 Z M 6.421875 -17.3125 "/></g></g></g><g fill="#000000" fill-opacity="1"><g transform="translate(123.32767, 219.617807)"><g><path d="M 5.90625 -21.6875 L 5.90625 0 L 1.671875 0 L 1.671875 -29.9375 L 7.5625 -29.9375 L 12.40625 -12.015625 L 12.40625 -29.9375 L 16.59375 -29.9375 L 16.59375 0 L 11.765625 0 Z M 5.90625 -21.6875 "/></g></g></g><g fill="#000000" fill-opacity="1"><g transform="translate(147.572162, 219.617807)"><g><path d="M 1.703125 -29.9375 L 9.15625 -29.9375 C 11.519531 -29.9375 13.28125 -29.304688 14.4375 -28.046875 C 15.59375 -26.796875 16.171875 -24.957031 16.171875 -22.53125 L 16.171875 -7.40625 C 16.171875 -4.976562 15.59375 -3.132812 14.4375 -1.875 C 13.28125 -0.625 11.519531 0 9.15625 0 L 1.703125 0 Z M 6.421875 -25.65625 L 6.421875 -4.28125 L 9.0625 -4.28125 C 9.800781 -4.28125 10.382812 -4.492188 10.8125 -4.921875 C 11.25 -5.347656 11.46875 -6.101562 11.46875 -7.1875 L 11.46875 -22.75 C 11.46875 -23.832031 11.25 -24.585938 10.8125 -25.015625 C 10.382812 -25.441406 9.800781 -25.65625 9.0625 -25.65625 Z M 6.421875 -25.65625 "/></g></g></g><g fill="#000000" fill-opacity="1"><g transform="translate(171.004241, 219.617807)"><g><path d="M 6.421875 -17.3125 L 12.875 -17.3125 L 12.875 -13.046875 L 6.421875 -13.046875 L 6.421875 -4.28125 L 14.546875 -4.28125 L 14.546875 0 L 1.703125 0 L 1.703125 -29.9375 L 14.546875 -29.9375 L 14.546875 -25.65625 L 6.421875 -25.65625 Z M 6.421875 -17.3125 "/></g></g></g><g fill="#000000" fill-opacity="1"><g transform="translate(192.725989, 219.617807)"><g><path d="M 1.703125 -29.9375 L 6.421875 -29.9375 L 6.421875 -4.28125 L 14.15625 -4.28125 L 14.15625 0 L 1.703125 0 Z M 1.703125 -29.9375 "/></g></g></g><g fill="#000000" fill-opacity="1"><g transform="translate(213.207727, 219.617807)"><g><path d="M 1.703125 -29.9375 L 6.421875 -29.9375 L 6.421875 -4.28125 L 14.15625 -4.28125 L 14.15625 0 L 1.703125 0 Z M 1.703125 -29.9375 "/></g></g></g><g fill="#000000" fill-opacity="1"><g transform="translate(233.689465, 219.617807)"><g><path d="M 6.03125 -6.890625 C 6.03125 -5.804688 6.25 -5.039062 6.6875 -4.59375 C 7.132812 -4.15625 7.726562 -3.9375 8.46875 -3.9375 C 9.207031 -3.9375 9.796875 -4.15625 10.234375 -4.59375 C 10.679688 -5.039062 10.90625 -5.804688 10.90625 -6.890625 L 10.90625 -23.046875 C 10.90625 -24.128906 10.679688 -24.890625 10.234375 -25.328125 C 9.796875 -25.773438 9.207031 -26 8.46875 -26 C 7.726562 -26 7.132812 -25.773438 6.6875 -25.328125 C 6.25 -24.890625 6.03125 -24.128906 6.03125 -23.046875 Z M 1.328125 -22.75 C 1.328125 -25.175781 1.9375 -27.035156 3.15625 -28.328125 C 4.382812 -29.628906 6.15625 -30.28125 8.46875 -30.28125 C 10.78125 -30.28125 12.546875 -29.628906 13.765625 -28.328125 C 14.992188 -27.035156 15.609375 -25.175781 15.609375 -22.75 L 15.609375 -7.1875 C 15.609375 -4.757812 14.992188 -2.894531 13.765625 -1.59375 C 12.546875 -0.300781 10.78125 0.34375 8.46875 0.34375 C 6.15625 0.34375 4.382812 -0.300781 3.15625 -1.59375 C 1.9375 -2.894531 1.328125 -4.757812 1.328125 -7.1875 Z M 1.328125 -22.75 "/></g></g></g><g fill="#000000" fill-opacity="1"><g transform="translate(256.608427, 219.617807)"><g><path d="M 5.90625 -21.6875 L 5.90625 0 L 1.671875 0 L 1.671875 -29.9375 L 7.5625 -29.9375 L 12.40625 -12.015625 L 12.40625 -29.9375 L 16.59375 -29.9375 L 16.59375 0 L 11.765625 0 Z M 5.90625 -21.6875 "/></g></g></g><g fill="#000000" fill-opacity="1"><g transform="translate(232.853471, 247.910799)"><g><path d="M 2.46875 0 L 1.296875 0 L 0.25 -7.640625 L 1.078125 -7.640625 L 1.984375 -1.140625 L 2.828125 -7.640625 L 3.671875 -7.640625 L 4.515625 -1.125 L 5.375 -7.640625 L 6.109375 -7.640625 L 5.078125 0 L 3.953125 0 L 3.21875 -5.1875 Z M 2.46875 0 "/></g></g></g><g fill="#000000" fill-opacity="1"><g transform="translate(239.220975, 247.910799)"><g><path d="M 1.296875 -1.546875 L 1 0 L 0.21875 0 L 1.6875 -7.640625 L 2.921875 -7.640625 L 4.375 0 L 3.53125 0 L 3.234375 -1.546875 Z M 1.40625 -2.265625 L 3.109375 -2.265625 L 2.25 -6.6875 Z M 1.40625 -2.265625 "/></g></g></g><g fill="#000000" fill-opacity="1"><g transform="translate(243.830036, 247.910799)"><g><path d="M 1.296875 -1.546875 L 1 0 L 0.21875 0 L 1.6875 -7.640625 L 2.921875 -7.640625 L 4.375 0 L 3.53125 0 L 3.234375 -1.546875 Z M 1.40625 -2.265625 L 3.109375 -2.265625 L 2.25 -6.6875 Z M 1.40625 -2.265625 "/></g></g></g><g fill="#000000" fill-opacity="1"><g transform="translate(248.439098, 247.910799)"><g><path d="M 2.15625 -7.640625 C 2.75 -7.640625 3.171875 -7.5 3.421875 -7.21875 C 3.679688 -6.9375 3.8125 -6.515625 3.8125 -5.953125 L 3.8125 -5.59375 C 3.8125 -5.1875 3.742188 -4.859375 3.609375 -4.609375 C 3.484375 -4.359375 3.253906 -4.179688 2.921875 -4.078125 C 3.285156 -3.972656 3.546875 -3.773438 3.703125 -3.484375 C 3.859375 -3.203125 3.9375 -2.851562 3.9375 -2.4375 L 3.9375 -1.796875 C 3.9375 -1.210938 3.796875 -0.765625 3.515625 -0.453125 C 3.234375 -0.148438 2.796875 0 2.203125 0 L 0.4375 0 L 0.4375 -7.640625 Z M 1.9375 -4.40625 C 2.28125 -4.40625 2.535156 -4.472656 2.703125 -4.609375 C 2.878906 -4.742188 2.96875 -5.015625 2.96875 -5.421875 L 2.96875 -5.859375 C 2.96875 -6.203125 2.90625 -6.457031 2.78125 -6.625 C 2.65625 -6.789062 2.4375 -6.875 2.125 -6.875 L 1.28125 -6.875 L 1.28125 -4.40625 Z M 2.203125 -0.78125 C 2.804688 -0.78125 3.109375 -1.125 3.109375 -1.8125 L 3.109375 -2.484375 C 3.109375 -2.921875 3.019531 -3.21875 2.84375 -3.375 C 2.675781 -3.539062 2.40625 -3.625 2.03125 -3.625 L 1.28125 -3.625 L 1.28125 -0.78125 Z M 2.203125 -0.78125 "/></g></g></g></svg>